<svg width="286" height="265" viewBox="0 0 286 265" fill="none" xmlns="http://www.w3.org/2000/svg">
<path fill-rule="evenodd" clip-rule="evenodd" d="M238.722 175.15C267.141 124.989 286 61.9883 286 23.9999C286 -13.8301 267.298 0.282904 239.077 21.5792C214.561 40.0792 182.863 63.9998 150 63.9998C118.214 63.9998 84.6856 41.6203 57.4086 23.4132L57.4086 23.4132C24.0218 1.12792 0 -14.9063 0 23.9999C0 61.581 22.4134 123.641 54.0306 173.532L108 213H139.089H181L238.722 175.15ZM105 180C128.748 180 148 160.748 148 137C148 113.252 128.748 94 105 94C81.2518 94 62 113.252 62 137C62 160.748 81.2518 180 105 180ZM223 137C223 154.673 208.673 169 191 169C173.327 169 159 154.673 159 137C159 119.327 173.327 105 191 105C208.673 105 223 119.327 223 137ZM149 192C149 196.971 144.971 201 140 201C135.029 201 131 196.971 131 192C131 187.029 135.029 183 140 183C144.971 183 149 187.029 149 192ZM160 198C163.314 198 166 195.314 166 192C166 188.686 163.314 186 160 186C156.686 186 154 188.686 154 192C154 195.314 156.686 198 160 198Z" fill="white"/>
<path d="M239 180.527C238.451 199.254 208.486 229.642 193.364 242.452C178.242 255.261 156.926 262.286 136.089 261.675C115.252 261.064 106.764 253.166 92.4186 239.492C78.0729 225.818 56.451 199.254 57 180.527L105 220.527L136.089 220.527L178 220.527L239 180.527Z" fill="white"/>
<circle cx="105" cy="137" r="21" fill="#F14080" fill-opacity="0.9"/>
<circle cx="191" cy="138" r="12" fill="#6C7BFF" fill-opacity="0.9"/>
</svg>
